<?xml version="1.0" encoding="UTF-8" standalone="no"?>
<!DOCTYPE svg PUBLIC "-//W3C//DTD SVG 1.1//EN"
 "http://www.w3.org/Graphics/SVG/1.1/DTD/svg11.dtd">
<!-- Generated by graphviz version 2.26.0 (20091210.2329)
 -->
<!-- Title: G Pages: 1 -->
<svg width="509pt" height="572pt"
 viewBox="0.00 0.00 509.00 572.00" xmlns="http://www.w3.org/2000/svg" xmlns:xlink="http://www.w3.org/1999/xlink">
<g id="graph1" class="graph" transform="scale(1 1) rotate(0) translate(4 568)">
<title>G</title>
<polygon fill="white" stroke="white" points="-4,5 -4,-568 506,-568 506,5 -4,5"/>
<!-- cloud_free_ls_nbar -->
<g id="node1" class="node"><title>cloud_free_ls_nbar</title>
<text text-anchor="middle" x="256" y="-15.2" font-family="Bookman" font-size="12.00">cloud_free_ls_nbar</text>
</g>
<!-- cloud_free_ls8_nbar -->
<g id="node2" class="node"><title>cloud_free_ls8_nbar</title>
<text text-anchor="middle" x="177" y="-147.2" font-family="Bookman" font-size="12.00">cloud_free_ls8_nbar</text>
</g>
<!-- collate -->
<g id="node4" class="node"><title>collate</title>
<polygon fill="lightgray" stroke="lightgray" points="283,-96 229,-96 229,-72 283,-72 283,-96"/>
<text text-anchor="middle" x="256" y="-81.2" font-family="Bookman" font-size="12.00">collate</text>
</g>
<!-- cloud_free_ls8_nbar&#45;&gt;collate -->
<g id="edge4" class="edge"><title>cloud_free_ls8_nbar&#45;&gt;collate</title>
<path fill="none" stroke="black" d="M198.587,-131.965C209.363,-122.963 222.395,-112.075 233.318,-102.95"/>
<polygon fill="black" stroke="black" points="235.757,-105.473 241.187,-96.3754 231.269,-100.101 235.757,-105.473"/>
</g>
<!-- cloud_free_ls7_nbar -->
<g id="node3" class="node"><title>cloud_free_ls7_nbar</title>
<text text-anchor="middle" x="336" y="-147.2" font-family="Bookman" font-size="12.00">cloud_free_ls7_nbar</text>
</g>
<!-- cloud_free_ls7_nbar&#45;&gt;collate -->
<g id="edge6" class="edge"><title>cloud_free_ls7_nbar&#45;&gt;collate</title>
<path fill="none" stroke="black" d="M314.14,-131.965C303.227,-122.963 290.03,-112.075 278.969,-102.95"/>
<polygon fill="black" stroke="black" points="280.942,-100.039 271,-96.3754 276.487,-105.439 280.942,-100.039"/>
</g>
<!-- collate&#45;&gt;cloud_free_ls_nbar -->
<g id="edge2" class="edge"><title>collate&#45;&gt;cloud_free_ls_nbar</title>
<path fill="none" stroke="black" d="M256,-71.8946C256,-64.6727 256,-55.1828 256,-46.1817"/>
<polygon fill="black" stroke="black" points="259.5,-46.0048 256,-36.0048 252.5,-46.0048 259.5,-46.0048"/>
</g>
<!-- trans1 -->
<g id="node8" class="node"><title>trans1</title>
<polygon fill="lightgray" stroke="lightgray" points="235,-228 83,-228 83,-204 235,-204 235,-228"/>
<text text-anchor="middle" x="159" y="-213.2" font-family="Bookman" font-size="12.00">transform: apply_mask</text>
</g>
<!-- trans1&#45;&gt;cloud_free_ls8_nbar -->
<g id="edge8" class="edge"><title>trans1&#45;&gt;cloud_free_ls8_nbar</title>
<path fill="none" stroke="black" d="M162.301,-203.895C164.292,-196.594 166.916,-186.976 169.394,-177.888"/>
<polygon fill="black" stroke="black" points="172.835,-178.573 172.09,-168.005 166.082,-176.732 172.835,-178.573"/>
</g>
<!-- trans2 -->
<g id="node9" class="node"><title>trans2</title>
<polygon fill="lightgray" stroke="lightgray" points="421,-228 269,-228 269,-204 421,-204 421,-228"/>
<text text-anchor="middle" x="345" y="-213.2" font-family="Bookman" font-size="12.00">transform: apply_mask</text>
</g>
<!-- trans2&#45;&gt;cloud_free_ls7_nbar -->
<g id="edge10" class="edge"><title>trans2&#45;&gt;cloud_free_ls7_nbar</title>
<path fill="none" stroke="black" d="M343.349,-203.895C342.364,-196.673 341.07,-187.183 339.843,-178.182"/>
<polygon fill="black" stroke="black" points="343.274,-177.44 338.455,-168.005 336.339,-178.386 343.274,-177.44"/>
</g>
<!-- jux1 -->
<g id="node12" class="node"><title>jux1</title>
<text text-anchor="middle" x="127" y="-279.2" font-family="Bookman" font-size="12.00">(ls8_nbar_albers, ls8_cloud_mask)</text>
</g>
<!-- jux1&#45;&gt;trans1 -->
<g id="edge12" class="edge"><title>jux1&#45;&gt;trans1</title>
<path fill="none" stroke="black" d="M135.744,-263.965C139.724,-255.757 144.463,-245.982 148.622,-237.404"/>
<polygon fill="black" stroke="black" points="151.786,-238.9 153,-228.375 145.488,-235.847 151.786,-238.9"/>
</g>
<!-- jux2 -->
<g id="node13" class="node"><title>jux2</title>
<text text-anchor="middle" x="361" y="-279.2" font-family="Bookman" font-size="12.00">(ls7_nbar_albers, ls7_cloud_mask)</text>
</g>
<!-- jux2&#45;&gt;trans2 -->
<g id="edge14" class="edge"><title>jux2&#45;&gt;trans2</title>
<path fill="none" stroke="black" d="M356.628,-263.965C354.702,-256.022 352.421,-246.611 350.391,-238.237"/>
<polygon fill="black" stroke="black" points="353.758,-237.269 348,-228.375 346.955,-238.918 353.758,-237.269"/>
</g>
<!-- jux_box_1 -->
<g id="node16" class="node"><title>jux_box_1</title>
<polygon fill="lightgray" stroke="lightgray" points="163,-360 91,-360 91,-336 163,-336 163,-360"/>
<text text-anchor="middle" x="127" y="-345.2" font-family="Bookman" font-size="12.00">juxtapose</text>
</g>
<!-- jux_box_1&#45;&gt;jux1 -->
<g id="edge16" class="edge"><title>jux_box_1&#45;&gt;jux1</title>
<path fill="none" stroke="black" d="M127,-335.895C127,-328.673 127,-319.183 127,-310.182"/>
<polygon fill="black" stroke="black" points="130.5,-310.005 127,-300.005 123.5,-310.005 130.5,-310.005"/>
</g>
<!-- jux_box_2 -->
<g id="node17" class="node"><title>jux_box_2</title>
<polygon fill="lightgray" stroke="lightgray" points="397,-360 325,-360 325,-336 397,-336 397,-360"/>
<text text-anchor="middle" x="361" y="-345.2" font-family="Bookman" font-size="12.00">juxtapose</text>
</g>
<!-- jux_box_2&#45;&gt;jux2 -->
<g id="edge18" class="edge"><title>jux_box_2&#45;&gt;jux2</title>
<path fill="none" stroke="black" d="M361,-335.895C361,-328.673 361,-319.183 361,-310.182"/>
<polygon fill="black" stroke="black" points="364.5,-310.005 361,-300.005 357.5,-310.005 364.5,-310.005"/>
</g>
<!-- ls8_nbar_albers -->
<g id="node21" class="node"><title>ls8_nbar_albers</title>
<text text-anchor="middle" x="54" y="-543.2" font-family="Bookman" font-size="12.00">ls8_nbar_albers</text>
</g>
<!-- ls8_nbar_albers&#45;&gt;jux_box_1 -->
<g id="edge21" class="edge"><title>ls8_nbar_albers&#45;&gt;jux_box_1</title>
<path fill="none" stroke="black" d="M55.2394,-527.533C57.808,-498.272 65.4105,-440.057 87,-396 92.012,-385.772 99.6418,-375.859 106.899,-367.724"/>
<polygon fill="black" stroke="black" points="109.634,-369.924 113.921,-360.235 104.527,-365.136 109.634,-369.924"/>
</g>
<!-- ls7_nbar_albers -->
<g id="node22" class="node"><title>ls7_nbar_albers</title>
<text text-anchor="middle" x="315" y="-543.2" font-family="Bookman" font-size="12.00">ls7_nbar_albers</text>
</g>
<!-- ls7_nbar_albers&#45;&gt;jux_box_2 -->
<g id="edge23" class="edge"><title>ls7_nbar_albers&#45;&gt;jux_box_2</title>
<path fill="none" stroke="black" d="M318.684,-527.926C324.508,-499.678 336.376,-443.391 348,-396 350.088,-387.488 352.564,-378.179 354.792,-370.043"/>
<polygon fill="black" stroke="black" points="358.225,-370.762 357.525,-360.19 351.48,-368.891 358.225,-370.762"/>
</g>
<!-- ls8_pq_albers -->
<g id="node23" class="node"><title>ls8_pq_albers</title>
<text text-anchor="middle" x="173" y="-543.2" font-family="Bookman" font-size="12.00">ls8_pq_albers</text>
</g>
<!-- trans3 -->
<g id="node27" class="node"><title>trans3</title>
<polygon fill="lightgray" stroke="lightgray" points="240,-492 90,-492 90,-468 240,-468 240,-492"/>
<text text-anchor="middle" x="165" y="-477.2" font-family="Bookman" font-size="12.00">transform: make_mask</text>
</g>
<!-- ls8_pq_albers&#45;&gt;trans3 -->
<g id="edge33" class="edge"><title>ls8_pq_albers&#45;&gt;trans3</title>
<path fill="none" stroke="black" d="M170.814,-527.965C169.862,-520.11 168.736,-510.82 167.729,-502.517"/>
<polygon fill="black" stroke="black" points="171.178,-501.882 166.5,-492.375 164.229,-502.724 171.178,-501.882"/>
</g>
<!-- ls7_pq_albers -->
<g id="node24" class="node"><title>ls7_pq_albers</title>
<text text-anchor="middle" x="434" y="-543.2" font-family="Bookman" font-size="12.00">ls7_pq_albers</text>
</g>
<!-- trans4 -->
<g id="node28" class="node"><title>trans4</title>
<polygon fill="lightgray" stroke="lightgray" points="501,-492 351,-492 351,-468 501,-468 501,-492"/>
<text text-anchor="middle" x="426" y="-477.2" font-family="Bookman" font-size="12.00">transform: make_mask</text>
</g>
<!-- ls7_pq_albers&#45;&gt;trans4 -->
<g id="edge35" class="edge"><title>ls7_pq_albers&#45;&gt;trans4</title>
<path fill="none" stroke="black" d="M431.814,-527.965C430.862,-520.11 429.736,-510.82 428.729,-502.517"/>
<polygon fill="black" stroke="black" points="432.178,-501.882 427.5,-492.375 425.229,-502.724 432.178,-501.882"/>
</g>
<!-- ls8_cloud_mask -->
<g id="node29" class="node"><title>ls8_cloud_mask</title>
<text text-anchor="middle" x="151" y="-411.2" font-family="Bookman" font-size="12.00">ls8_cloud_mask</text>
</g>
<!-- trans3&#45;&gt;ls8_cloud_mask -->
<g id="edge25" class="edge"><title>trans3&#45;&gt;ls8_cloud_mask</title>
<path fill="none" stroke="black" d="M162.432,-467.895C160.884,-460.594 158.843,-450.976 156.916,-441.888"/>
<polygon fill="black" stroke="black" points="160.318,-441.061 154.819,-432.005 153.471,-442.513 160.318,-441.061"/>
</g>
<!-- ls7_cloud_mask -->
<g id="node30" class="node"><title>ls7_cloud_mask</title>
<text text-anchor="middle" x="412" y="-411.2" font-family="Bookman" font-size="12.00">ls7_cloud_mask</text>
</g>
<!-- trans4&#45;&gt;ls7_cloud_mask -->
<g id="edge29" class="edge"><title>trans4&#45;&gt;ls7_cloud_mask</title>
<path fill="none" stroke="black" d="M423.432,-467.895C421.884,-460.594 419.843,-450.976 417.916,-441.888"/>
<polygon fill="black" stroke="black" points="421.318,-441.061 415.819,-432.005 414.471,-442.513 421.318,-441.061"/>
</g>
<!-- ls8_cloud_mask&#45;&gt;jux_box_1 -->
<g id="edge27" class="edge"><title>ls8_cloud_mask&#45;&gt;jux_box_1</title>
<path fill="none" stroke="black" d="M144.442,-395.965C141.521,-387.933 138.055,-378.401 134.985,-369.959"/>
<polygon fill="black" stroke="black" points="138.207,-368.577 131.5,-360.375 131.628,-370.969 138.207,-368.577"/>
</g>
<!-- ls7_cloud_mask&#45;&gt;jux_box_2 -->
<g id="edge31" class="edge"><title>ls7_cloud_mask&#45;&gt;jux_box_2</title>
<path fill="none" stroke="black" d="M398.064,-395.965C391.448,-387.404 383.516,-377.138 376.689,-368.304"/>
<polygon fill="black" stroke="black" points="379.447,-366.148 370.563,-360.375 373.908,-370.428 379.447,-366.148"/>
</g>
</g>
</svg>
