<?xml version="1.0" encoding="UTF-8" standalone="no"?>
<!DOCTYPE svg PUBLIC "-//W3C//DTD SVG 1.1//EN"
 "http://www.w3.org/Graphics/SVG/1.1/DTD/svg11.dtd">
<!-- Generated by graphviz version 2.26.0 (20091210.2329)
 -->
<!-- Title: G Pages: 1 -->
<svg width="370pt" height="126pt"
 viewBox="0.00 0.00 370.00 126.00" xmlns="http://www.w3.org/2000/svg" xmlns:xlink="http://www.w3.org/1999/xlink">
<g id="graph1" class="graph" transform="scale(1 1) rotate(0) translate(4 122)">
<title>G</title>
<polygon fill="white" stroke="white" points="-4,5 -4,-122 367,-122 367,5 -4,5"/>
<!-- prod1 -->
<g id="node1" class="node"><title>prod1</title>
<polygon fill="lightgray" stroke="lightgray" points="11,-93 11,-112 45,-112 45,-93 11,-93"/>
<polygon fill="none" stroke="black" points="11,-93 11,-112 45,-112 45,-93 11,-93"/>
<text text-anchor="start" x="14.5" y="-99.7" font-family="Bookman" font-size="12.00">Mon</text>
<polygon fill="darkseagreen" stroke="darkseagreen" points="47,-93 47,-112 108,-112 108,-93 47,-93"/>
<polygon fill="none" stroke="black" points="47,-93 47,-112 108,-112 108,-93 47,-93"/>
<text text-anchor="start" x="50" y="-99.7" font-family="Bookman" font-size="12.00">dataset&#45;1</text>
<polygon fill="lightgray" stroke="lightgray" points="11,-73 11,-91 45,-91 45,-73 11,-73"/>
<polygon fill="none" stroke="black" points="11,-73 11,-91 45,-91 45,-73 11,-73"/>
<text text-anchor="start" x="15.5" y="-79.2" font-family="Bookman" font-size="12.00">Wed</text>
<polygon fill="darkseagreen" stroke="darkseagreen" points="47,-73 47,-91 108,-91 108,-73 47,-73"/>
<polygon fill="none" stroke="black" points="47,-73 47,-91 108,-91 108,-73 47,-73"/>
<text text-anchor="start" x="50" y="-79.2" font-family="Bookman" font-size="12.00">dataset&#45;2</text>
</g>
<!-- collate -->
<g id="node3" class="node"><title>collate</title>
<polygon fill="lightgray" stroke="lightgray" points="208,-71 154,-71 154,-47 208,-47 208,-71"/>
<text text-anchor="middle" x="181" y="-56.2" font-family="Bookman" font-size="12.00">collate</text>
</g>
<!-- prod1&#45;&gt;collate -->
<g id="edge2" class="edge"><title>prod1&#45;&gt;collate</title>
<path fill="none" stroke="black" d="M117.856,-76.5975C126.78,-74.1106 135.765,-71.6065 144.046,-69.2987"/>
<polygon fill="black" stroke="black" points="145.053,-72.6514 153.747,-66.5952 143.174,-65.9083 145.053,-72.6514"/>
</g>
<!-- prod2 -->
<g id="node2" class="node"><title>prod2</title>
<polygon fill="lightgray" stroke="lightgray" points="12,-25 12,-44 44,-44 44,-25 12,-25"/>
<polygon fill="none" stroke="black" points="12,-25 12,-44 44,-44 44,-25 12,-25"/>
<text text-anchor="start" x="17" y="-31.7" font-family="Bookman" font-size="12.00">Tue</text>
<polygon fill="none" stroke="black" points="46,-25 46,-44 107,-44 107,-25 46,-25"/>
<text text-anchor="start" x="49" y="-31.7" font-family="Bookman" font-size="12.00">dataset&#45;3</text>
<polygon fill="lightgray" stroke="lightgray" points="12,-5 12,-23 44,-23 44,-5 12,-5"/>
<polygon fill="none" stroke="black" points="12,-5 12,-23 44,-23 44,-5 12,-5"/>
<text text-anchor="start" x="15.5" y="-11.2" font-family="Bookman" font-size="12.00">Thu</text>
<polygon fill="none" stroke="black" points="46,-5 46,-23 107,-23 107,-5 46,-5"/>
<text text-anchor="start" x="49" y="-11.2" font-family="Bookman" font-size="12.00">dataset&#45;4</text>
</g>
<!-- prod2&#45;&gt;collate -->
<g id="edge4" class="edge"><title>prod2&#45;&gt;collate</title>
<path fill="none" stroke="black" d="M116.785,-41.1039C126.081,-43.6946 135.476,-46.3131 144.105,-48.7179"/>
<polygon fill="black" stroke="black" points="143.258,-52.1151 153.831,-51.4282 145.137,-45.3721 143.258,-52.1151"/>
</g>
<!-- prod12 -->
<g id="node6" class="node"><title>prod12</title>
<polygon fill="lightgray" stroke="lightgray" points="255,-79 255,-98 289,-98 289,-79 255,-79"/>
<polygon fill="none" stroke="black" points="255,-79 255,-98 289,-98 289,-79 255,-79"/>
<text text-anchor="start" x="258.5" y="-85.7" font-family="Bookman" font-size="12.00">Mon</text>
<polygon fill="darkseagreen" stroke="darkseagreen" points="291,-79 291,-98 352,-98 352,-79 291,-79"/>
<polygon fill="none" stroke="black" points="291,-79 291,-98 352,-98 352,-79 291,-79"/>
<text text-anchor="start" x="294" y="-85.7" font-family="Bookman" font-size="12.00">dataset&#45;1</text>
<polygon fill="lightgray" stroke="lightgray" points="255,-59 255,-77 289,-77 289,-59 255,-59"/>
<polygon fill="none" stroke="black" points="255,-59 255,-77 289,-77 289,-59 255,-59"/>
<text text-anchor="start" x="261" y="-65.2" font-family="Bookman" font-size="12.00">Tue</text>
<polygon fill="none" stroke="black" points="291,-59 291,-77 352,-77 352,-59 291,-59"/>
<text text-anchor="start" x="294" y="-65.2" font-family="Bookman" font-size="12.00">dataset&#45;3</text>
<polygon fill="lightgray" stroke="lightgray" points="255,-39 255,-57 289,-57 289,-39 255,-39"/>
<polygon fill="none" stroke="black" points="255,-39 255,-57 289,-57 289,-39 255,-39"/>
<text text-anchor="start" x="259.5" y="-45.2" font-family="Bookman" font-size="12.00">Wed</text>
<polygon fill="darkseagreen" stroke="darkseagreen" points="291,-39 291,-57 352,-57 352,-39 291,-39"/>
<polygon fill="none" stroke="black" points="291,-39 291,-57 352,-57 352,-39 291,-39"/>
<text text-anchor="start" x="294" y="-45.2" font-family="Bookman" font-size="12.00">dataset&#45;2</text>
<polygon fill="lightgray" stroke="lightgray" points="255,-19 255,-37 289,-37 289,-19 255,-19"/>
<polygon fill="none" stroke="black" points="255,-19 255,-37 289,-37 289,-19 255,-19"/>
<text text-anchor="start" x="259.5" y="-25.2" font-family="Bookman" font-size="12.00">Thu</text>
<polygon fill="none" stroke="black" points="291,-19 291,-37 352,-37 352,-19 291,-19"/>
<text text-anchor="start" x="294" y="-25.2" font-family="Bookman" font-size="12.00">dataset&#45;4</text>
</g>
<!-- collate&#45;&gt;prod12 -->
<g id="edge6" class="edge"><title>collate&#45;&gt;prod12</title>
<path fill="none" stroke="black" d="M208.076,-59C215.912,-59 224.843,-59 234.019,-59"/>
<polygon fill="black" stroke="black" points="234.033,-62.5001 244.033,-59 234.032,-55.5001 234.033,-62.5001"/>
</g>
</g>
</svg>
