<?xml version="1.0" encoding="UTF-8" standalone="no"?>
<!DOCTYPE svg PUBLIC "-//W3C//DTD SVG 1.1//EN"
 "http://www.w3.org/Graphics/SVG/1.1/DTD/svg11.dtd">
<!-- Generated by graphviz version 2.26.0 (20091210.2329)
 -->
<!-- Title: G Pages: 1 -->
<svg width="544pt" height="146pt"
 viewBox="0.00 0.00 544.00 146.00" xmlns="http://www.w3.org/2000/svg" xmlns:xlink="http://www.w3.org/1999/xlink">
<g id="graph1" class="graph" transform="scale(1 1) rotate(0) translate(4 142)">
<title>G</title>
<polygon fill="white" stroke="white" points="-4,5 -4,-142 541,-142 541,5 -4,5"/>
<!-- prod1 -->
<g id="node1" class="node"><title>prod1</title>
<polygon fill="lightgray" stroke="lightgray" points="10,-113 10,-132 44,-132 44,-113 10,-113"/>
<polygon fill="none" stroke="black" points="10,-113 10,-132 44,-132 44,-113 10,-113"/>
<text text-anchor="start" x="13.5" y="-119.7" font-family="Bookman" font-size="12.00">Mon</text>
<polygon fill="darkseagreen" stroke="darkseagreen" points="46,-113 46,-132 71,-132 71,-113 46,-113"/>
<polygon fill="none" stroke="black" points="46,-113 46,-132 71,-132 71,-113 46,-113"/>
<text text-anchor="start" x="49" y="-119.7" font-family="Bookman" font-size="12.00">red</text>
<polygon fill="darkseagreen" stroke="darkseagreen" points="73,-113 73,-132 112,-132 112,-113 73,-113"/>
<polygon fill="none" stroke="black" points="73,-113 73,-132 112,-132 112,-113 73,-113"/>
<text text-anchor="start" x="76" y="-119.7" font-family="Bookman" font-size="12.00">green</text>
<polygon fill="darkseagreen" stroke="darkseagreen" points="114,-113 114,-132 146,-132 146,-113 114,-113"/>
<polygon fill="none" stroke="black" points="114,-113 114,-132 146,-132 146,-113 114,-113"/>
<text text-anchor="start" x="117" y="-119.7" font-family="Bookman" font-size="12.00">blue</text>
<polygon fill="lightgray" stroke="lightgray" points="10,-93 10,-111 44,-111 44,-93 10,-93"/>
<polygon fill="none" stroke="black" points="10,-93 10,-111 44,-111 44,-93 10,-93"/>
<text text-anchor="start" x="16" y="-99.2" font-family="Bookman" font-size="12.00">Tue</text>
<polygon fill="none" stroke="black" points="46,-93 46,-111 71,-111 71,-93 46,-93"/>
<text text-anchor="start" x="49" y="-99.2" font-family="Bookman" font-size="12.00">red</text>
<polygon fill="none" stroke="black" points="73,-93 73,-111 112,-111 112,-93 73,-93"/>
<text text-anchor="start" x="76" y="-99.2" font-family="Bookman" font-size="12.00">green</text>
<polygon fill="none" stroke="black" points="114,-93 114,-111 146,-111 146,-93 114,-93"/>
<text text-anchor="start" x="117" y="-99.2" font-family="Bookman" font-size="12.00">blue</text>
<polygon fill="lightgray" stroke="lightgray" points="10,-73 10,-91 44,-91 44,-73 10,-73"/>
<polygon fill="none" stroke="black" points="10,-73 10,-91 44,-91 44,-73 10,-73"/>
<text text-anchor="start" x="14.5" y="-79.2" font-family="Bookman" font-size="12.00">Wed</text>
<polygon fill="burlywood" stroke="burlywood" points="46,-73 46,-91 71,-91 71,-73 46,-73"/>
<polygon fill="none" stroke="black" points="46,-73 46,-91 71,-91 71,-73 46,-73"/>
<text text-anchor="start" x="49" y="-79.2" font-family="Bookman" font-size="12.00">red</text>
<polygon fill="burlywood" stroke="burlywood" points="73,-73 73,-91 112,-91 112,-73 73,-73"/>
<polygon fill="none" stroke="black" points="73,-73 73,-91 112,-91 112,-73 73,-73"/>
<text text-anchor="start" x="76" y="-79.2" font-family="Bookman" font-size="12.00">green</text>
<polygon fill="burlywood" stroke="burlywood" points="114,-73 114,-91 146,-91 146,-73 114,-73"/>
<polygon fill="none" stroke="black" points="114,-73 114,-91 146,-91 146,-73 114,-73"/>
<text text-anchor="start" x="117" y="-79.2" font-family="Bookman" font-size="12.00">blue</text>
</g>
<!-- juxtapose -->
<g id="node3" class="node"><title>juxtapose</title>
<polygon fill="lightgray" stroke="lightgray" points="265,-76 193,-76 193,-52 265,-52 265,-76"/>
<text text-anchor="middle" x="229" y="-61.2" font-family="Bookman" font-size="12.00">juxtapose</text>
</g>
<!-- prod1&#45;&gt;juxtapose -->
<g id="edge2" class="edge"><title>prod1&#45;&gt;juxtapose</title>
<path fill="none" stroke="black" d="M156.154,-82.8146C165.158,-80.489 174.112,-78.1763 182.503,-76.0093"/>
<polygon fill="black" stroke="black" points="183.616,-79.3366 192.423,-73.447 181.865,-72.559 183.616,-79.3366"/>
</g>
<!-- prod2 -->
<g id="node2" class="node"><title>prod2</title>
<polygon fill="lightgray" stroke="lightgray" points="23,-25 23,-44 57,-44 57,-25 23,-25"/>
<polygon fill="none" stroke="black" points="23,-25 23,-44 57,-44 57,-25 23,-25"/>
<text text-anchor="start" x="26.5" y="-31.7" font-family="Bookman" font-size="12.00">Mon</text>
<polygon fill="darkseagreen" stroke="darkseagreen" points="59,-25 59,-44 134,-44 134,-25 59,-25"/>
<polygon fill="none" stroke="black" points="59,-25 59,-44 134,-44 134,-25 59,-25"/>
<text text-anchor="start" x="62" y="-31.7" font-family="Bookman" font-size="12.00">pixelquality</text>
<polygon fill="lightgray" stroke="lightgray" points="23,-5 23,-23 57,-23 57,-5 23,-5"/>
<polygon fill="none" stroke="black" points="23,-5 23,-23 57,-23 57,-5 23,-5"/>
<text text-anchor="start" x="27.5" y="-11.2" font-family="Bookman" font-size="12.00">Wed</text>
<polygon fill="burlywood" stroke="burlywood" points="59,-5 59,-23 134,-23 134,-5 59,-5"/>
<polygon fill="none" stroke="black" points="59,-5 59,-23 134,-23 134,-5 59,-5"/>
<text text-anchor="start" x="62" y="-11.2" font-family="Bookman" font-size="12.00">pixelquality</text>
</g>
<!-- prod2&#45;&gt;juxtapose -->
<g id="edge4" class="edge"><title>prod2&#45;&gt;juxtapose</title>
<path fill="none" stroke="black" d="M143.792,-41.9925C156.83,-45.3602 170.262,-48.8293 182.496,-51.9891"/>
<polygon fill="black" stroke="black" points="181.899,-55.4495 192.456,-54.5615 183.649,-48.6719 181.899,-55.4495"/>
</g>
<!-- prod12 -->
<g id="node6" class="node"><title>prod12</title>
<polygon fill="lightgray" stroke="lightgray" points="313,-64 313,-83 347,-83 347,-64 313,-64"/>
<polygon fill="none" stroke="black" points="313,-64 313,-83 347,-83 347,-64 313,-64"/>
<text text-anchor="start" x="316.5" y="-70.7" font-family="Bookman" font-size="12.00">Mon</text>
<polygon fill="darkseagreen" stroke="darkseagreen" points="349,-64 349,-83 374,-83 374,-64 349,-64"/>
<polygon fill="none" stroke="black" points="349,-64 349,-83 374,-83 374,-64 349,-64"/>
<text text-anchor="start" x="352" y="-70.7" font-family="Bookman" font-size="12.00">red</text>
<polygon fill="darkseagreen" stroke="darkseagreen" points="376,-64 376,-83 415,-83 415,-64 376,-64"/>
<polygon fill="none" stroke="black" points="376,-64 376,-83 415,-83 415,-64 376,-64"/>
<text text-anchor="start" x="379" y="-70.7" font-family="Bookman" font-size="12.00">green</text>
<polygon fill="darkseagreen" stroke="darkseagreen" points="417,-64 417,-83 449,-83 449,-64 417,-64"/>
<polygon fill="none" stroke="black" points="417,-64 417,-83 449,-83 449,-64 417,-64"/>
<text text-anchor="start" x="420" y="-70.7" font-family="Bookman" font-size="12.00">blue</text>
<polygon fill="darkseagreen" stroke="darkseagreen" points="451,-64 451,-83 526,-83 526,-64 451,-64"/>
<polygon fill="none" stroke="black" points="451,-64 451,-83 526,-83 526,-64 451,-64"/>
<text text-anchor="start" x="454" y="-70.7" font-family="Bookman" font-size="12.00">pixelquality</text>
<polygon fill="lightgray" stroke="lightgray" points="313,-44 313,-62 347,-62 347,-44 313,-44"/>
<polygon fill="none" stroke="black" points="313,-44 313,-62 347,-62 347,-44 313,-44"/>
<text text-anchor="start" x="317.5" y="-50.2" font-family="Bookman" font-size="12.00">Wed</text>
<polygon fill="burlywood" stroke="burlywood" points="349,-44 349,-62 374,-62 374,-44 349,-44"/>
<polygon fill="none" stroke="black" points="349,-44 349,-62 374,-62 374,-44 349,-44"/>
<text text-anchor="start" x="352" y="-50.2" font-family="Bookman" font-size="12.00">red</text>
<polygon fill="burlywood" stroke="burlywood" points="376,-44 376,-62 415,-62 415,-44 376,-44"/>
<polygon fill="none" stroke="black" points="376,-44 376,-62 415,-62 415,-44 376,-44"/>
<text text-anchor="start" x="379" y="-50.2" font-family="Bookman" font-size="12.00">green</text>
<polygon fill="burlywood" stroke="burlywood" points="417,-44 417,-62 449,-62 449,-44 417,-44"/>
<polygon fill="none" stroke="black" points="417,-44 417,-62 449,-62 449,-44 417,-44"/>
<text text-anchor="start" x="420" y="-50.2" font-family="Bookman" font-size="12.00">blue</text>
<polygon fill="burlywood" stroke="burlywood" points="451,-44 451,-62 526,-62 526,-44 451,-44"/>
<polygon fill="none" stroke="black" points="451,-44 451,-62 526,-62 526,-44 451,-44"/>
<text text-anchor="start" x="454" y="-50.2" font-family="Bookman" font-size="12.00">pixelquality</text>
</g>
<!-- juxtapose&#45;&gt;prod12 -->
<g id="edge6" class="edge"><title>juxtapose&#45;&gt;prod12</title>
<path fill="none" stroke="black" d="M265.634,-64C273.717,-64 282.721,-64 292.203,-64"/>
<polygon fill="black" stroke="black" points="292.238,-67.5001 302.238,-64 292.238,-60.5001 292.238,-67.5001"/>
</g>
</g>
</svg>
